<svg xmlns="http://www.w3.org/2000/svg" xmlns:ev="http://www.w3.org/2001/xml-events" width="1132" height="804" xmlns:xlink="http://www.w3.org/1999/xlink" viewBox="0 0 1132 804"><defs/><g transform="translate(5,5)" id="page1"><rect x="0" y="0" width="1123" height="794" stroke="#808080" fill="#ffffff"/><g transform="translate(328,383)"><path transform="translate(-0,0)" id="shape1" stroke="#00a2ff" fill="#00a2ff" d="M9.9,0L335.6,0C341.1,0,345.7,4.6,345.7,10.7L345.7,236.4C345.7,242.5,341.1,247.4,335.6,247.4L207.3,247.4L207.3,283L252.3,283C252.3,283.1,255.8,283.4,255.8,287.4C255.8,287.4,255.8,302.5,255.8,302.5C255.8,302.5,255.4,307,251.7,307C251.7,307,93.5,307,93.5,307C89.5,307,89.5,302.5,89.5,302.5C89.5,302.5,89.5,291.5,89.5,287.4C89.5,283.4,93.5,283,93.5,283L138.2,283L138.2,247.4L9.9,247.4C4.4,247.4,0,242.5,0,236.4L0,10.7C0,4.6,4.4,0,9.9,0z"/><path transform="translate(17.28,19.74)" id="shape2" stroke="#ffffff" fill="#ffffff" d="M8.9,0L302,0C307,0,311.1,4.3,311.1,9.9L311.1,189.5C311.1,195,307,199.5,302,199.5L8.9,199.5C3.9,199.5,0,195,0,189.5L0,9.9C0,4.3,3.9,0,8.9,0z"/><path transform="translate(46.44,32.69)" id="shape3" stroke="#717070" fill="#717070" d="M21.9,0L21.9,35L12.1,35L12.1,12.1C10.5,13.2,9,14.2,7.5,14.9C6.1,15.7,4.2,16.4,2,17L2,9.2C5.3,8.2,7.8,6.9,9.6,5.4C11.5,4,12.9,2.2,13.9,0L21.9,0zM33.4,17.6C33.4,11.1,34.6,6.5,37,3.9C39.4,1.3,43,0,47.9,0C50.2,0,52.1,0,53.6,.9C55.1,1.4,56.4,2.2,57.3,3.1C58.3,4,59,5,59.5,6C60.1,7,60.5,8.2,60.9,9.5C61.5,12.1,61.8,14.7,61.8,17.5C61.8,23.8,60.8,28.3,58.6,31.2C56.5,34.1,52.8,35.6,47.6,35.6C44.7,35.6,42.3,35.1,40.5,34.2C38.7,33.2,37.2,31.9,36.1,30.1C35.2,28.8,34.6,27.1,34.1,24.9C33.6,22.7,33.4,20.3,33.4,17.6zM43,17.7C43,22,43.4,25,44.2,26.6C45,28.2,46.1,29,47.6,29C48.6,29,49.4,28.7,50.1,28C50.8,27.3,51.4,26.3,51.7,24.8C52.1,23.3,52.2,21,52.2,17.9C52.2,13.4,51.8,10.3,51.1,8.7C50.3,7.1,49.1,6.4,47.5,6.4C45.9,6.4,44.8,7.2,44.1,8.8C43.4,10.4,43,13.3,43,17.7zM88.7,0L88.7,35L78.9,35L78.9,12.1C77.4,13.2,75.8,14.2,74.4,14.9C72.9,15.7,71,16.4,68.8,17L68.8,9.2C72.1,8.2,74.6,6.9,76.5,5.4C78.3,4,79.7,2.2,80.7,0L88.7,0zM100.2,17.6C100.2,11.1,101.4,6.5,103.8,3.9C106.2,1.3,109.8,0,114.7,0C117,0,118.9,0,120.4,.9C122,1.4,123.2,2.2,124.1,3.1C125.1,4,125.8,5,126.4,6C126.9,7,127.4,8.2,127.7,9.5C128.3,12.1,128.7,14.7,128.7,17.5C128.7,23.8,127.6,28.3,125.5,31.2C123.3,34.1,119.6,35.6,114.4,35.6C111.5,35.6,109.1,35.1,107.3,34.2C105.5,33.2,104,31.9,102.9,30.1C102.1,28.8,101.4,27.1,100.9,24.9C100.5,22.7,100.2,20.3,100.2,17.6zM109.8,17.7C109.8,22,110.2,25,111,26.6C111.8,28.2,112.9,29,114.4,29C115.4,29,116.2,28.7,116.9,28C117.7,27.3,118.2,26.3,118.5,24.8C118.9,23.3,119,21,119,17.9C119,13.4,118.7,10.3,117.9,8.7C117.1,7.1,115.9,6.4,114.4,6.4C112.8,6.4,111.6,7.2,110.9,8.8C110.2,10.4,109.8,13.3,109.8,17.7zM155.5,0L155.5,35L145.8,35L145.8,12.1C144.2,13.2,142.7,14.2,141.2,14.9C139.7,15.7,137.8,16.4,135.6,17L135.6,9.2C138.9,8.2,141.5,6.9,143.3,5.4C145.1,4,146.5,2.2,147.5,0L155.5,0zM189,0L189,35L179.2,35L179.2,12.1C177.6,13.2,176.1,14.2,174.6,14.9C173.1,15.7,171.3,16.4,169,17L169,9.2C172.3,8.2,174.9,6.9,176.7,5.4C178.5,4,179.9,2.2,181,0L189,0zM222.4,0L222.4,35L212.6,35L212.6,12.1C211,13.2,209.5,14.2,208,14.9C206.5,15.7,204.7,16.4,202.4,17L202.4,9.2C205.7,8.2,208.3,6.9,210.1,5.4C211.9,4,213.3,2.2,214.4,0L222.4,0zM0,86.8C0,80.1,1.2,75.6,3.6,73C6,70.3,9.6,69,14.5,69C16.8,69,18.7,69.3,20.2,69.9C21.7,70.5,22.9,71.2,23.9,72.1C24.8,73,25.6,74,26.1,75C26.7,76,27.1,77.2,27.5,78.5C28.1,81.1,28.4,83.8,28.4,86.6C28.4,92.8,27.4,97.4,25.2,100.3C23.1,103.1,19.4,104.6,14.2,104.6C11.3,104.6,8.9,104.1,7.1,103.2C5.3,102.3,3.8,100.9,2.7,99.2C1.8,97.9,1.2,96.2,.7,94C0,91.8,0,89.3,0,86.8zM9.6,86.8C9.6,91.1,10,94.1,10.8,95.7C11.5,97.3,12.7,98.1,14.2,98.1C15.1,98.1,16,97.7,16.7,97.1C17.4,96.4,18,95.3,18.3,93.8C18.6,92.4,18.8,90.1,18.8,86.8C18.8,82.4,18.4,79.3,17.6,77.8C16.9,76.2,15.7,75.4,14.1,75.4C12.5,75.4,11.4,76.2,10.7,77.8C9.9,79.4,9.6,82.4,9.6,86.8zM33.4,86.8C33.4,80.1,34.6,75.6,37,73C39.4,70.3,43,69,47.9,69C50.2,69,52.1,69.3,53.6,69.9C55.1,70.5,56.4,71.2,57.3,72.1C58.3,73,59,74,59.5,75C60.1,76,60.5,77.2,60.9,78.5C61.5,81.1,61.8,83.8,61.8,86.6C61.8,92.8,60.8,97.4,58.6,100.3C56.5,103.1,52.8,104.6,47.6,104.6C44.7,104.6,42.3,104.1,40.5,103.2C38.7,102.3,37.2,100.9,36.1,99.2C35.2,97.9,34.6,96.2,34.1,94C33.6,91.8,33.4,89.3,33.4,86.8zM43,86.8C43,91.1,43.4,94.1,44.2,95.7C45,97.3,46.1,98.1,47.6,98.1C48.6,98.1,49.4,97.7,50.1,97.1C50.8,96.4,51.4,95.3,51.7,93.8C52.1,92.4,52.2,90.1,52.2,86.8C52.2,82.4,51.8,79.3,51.1,77.8C50.3,76.2,49.1,75.4,47.5,75.4C45.9,75.4,44.8,76.2,44.1,77.8C43.4,79.4,43,82.4,43,86.8zM88.7,69L88.7,104L78.9,104L78.9,81.1C77.4,82.3,75.8,83.2,74.4,84C72.9,84.7,71,85.4,68.8,86.1L68.8,78.3C72.1,77.2,74.6,75.9,76.5,74.5C78.3,73,79.7,71.2,80.7,69L88.7,69zM100.2,86.8C100.2,80.1,101.4,75.6,103.8,73C106.2,70.3,109.8,69,114.7,69C117,69,118.9,69.3,120.4,69.9C122,70.5,123.2,71.2,124.1,72.1C125.1,73,125.8,74,126.4,75C126.9,76,127.4,77.2,127.7,78.5C128.3,81.1,128.7,83.8,128.7,86.6C128.7,92.8,127.6,97.4,125.5,100.3C123.3,103.1,119.6,104.6,114.4,104.6C111.5,104.6,109.1,104.1,107.3,103.2C105.5,102.3,104,100.9,102.9,99.2C102.1,97.9,101.4,96.2,100.9,94C100.5,91.8,100.2,89.3,100.2,86.8zM109.8,86.8C109.8,91.1,110.2,94.1,111,95.7C111.8,97.3,112.9,98.1,114.4,98.1C115.4,98.1,116.2,97.7,116.9,97.1C117.7,96.4,118.2,95.3,118.5,93.8C118.9,92.4,119,90.1,119,86.8C119,82.4,118.7,79.3,117.9,77.8C117.1,76.2,115.9,75.4,114.4,75.4C112.8,75.4,111.6,76.2,110.9,77.8C110.2,79.4,109.8,82.4,109.8,86.8zM155.5,69L155.5,104L145.8,104L145.8,81.1C144.2,82.3,142.7,83.2,141.2,84C139.7,84.7,137.8,85.4,135.6,86.1L135.6,78.3C138.9,77.2,141.5,75.9,143.3,74.5C145.1,73,146.5,71.2,147.5,69L155.5,69zM189,69L189,104L179.2,104L179.2,81.1C177.6,82.3,176.1,83.2,174.6,84C173.1,84.7,171.3,85.4,169,86.1L169,78.3C172.3,77.2,174.9,75.9,176.7,74.5C178.5,73,179.9,71.2,181,69L189,69zM200.5,86.8C200.5,80.1,201.7,75.6,204,73C206.4,70.3,210,69,214.9,69C217.3,69,219.2,69.3,220.7,69.9C222.2,70.5,223.4,71.2,224.4,72.1C225.3,73,226.1,74,226.6,75C227.1,76,227.6,77.2,227.9,78.5C228.6,81.1,228.9,83.8,228.9,86.6C228.9,92.8,227.8,97.4,225.7,100.3C223.6,103.1,219.9,104.6,214.7,104.6C211.7,104.6,209.4,104.1,207.6,103.2C205.8,102.3,204.3,100.9,203.1,99.2C202.3,97.9,201.6,96.2,201.2,94C200.7,91.8,200.5,89.3,200.5,86.8zM210.1,86.8C210.1,91.1,210.4,94.1,211.2,95.7C212,97.3,213.1,98.1,214.6,98.1C215.6,98.1,216.5,97.7,217.2,97.1C217.9,96.4,218.4,95.3,218.8,93.8C219.1,92.4,219.3,90.1,219.3,86.8C219.3,82.4,218.9,79.3,218.1,77.8C217.3,76.2,216.1,75.4,214.6,75.4C213,75.4,211.8,76.2,211.1,77.8C210.4,79.4,210.1,82.4,210.1,86.8zM21.9,138.1L21.9,173L12.1,173L12.1,150.1C10.5,151.3,9,152.3,7.5,153C6.1,153.8,4.2,154.5,2,155.1L2,147.3C5.3,146.2,7.8,145,9.6,143.5C11.5,142,12.9,140.2,13.9,138.1L21.9,138.1zM33.4,155.7C33.4,149.2,34.6,144.6,37,142C39.4,139.4,43,138.1,47.9,138.1C50.2,138.1,52.1,138.4,53.6,138.9C55.1,139.5,56.4,140.2,57.3,141.2C58.3,142.1,59,143,59.5,144C60.1,145.1,60.5,146.2,60.9,147.6C61.5,150.1,61.8,152.8,61.8,155.6C61.8,161.8,60.8,166.4,58.6,169.3C56.5,172.2,52.8,173.6,47.6,173.6C44.7,173.6,42.3,173.2,40.5,172.2C38.7,171.3,37.2,170,36.1,168.2C35.2,166.9,34.6,165.2,34.1,163C33.6,160.8,33.4,158.4,33.4,155.7zM43,155.7C43,160.1,43.4,163.1,44.2,164.7C45,166.3,46.1,167.1,47.6,167.1C48.6,167.1,49.4,166.8,50.1,166.1C50.8,165.4,51.4,164.3,51.7,162.9C52.1,161.4,52.2,159.1,52.2,156C52.2,151.4,51.8,148.4,51.1,146.8C50.3,145.2,49.1,144.4,47.5,144.4C45.9,144.4,44.8,145.2,44.1,146.8C43.4,148.4,43,151.4,43,155.7zM88.7,138.1L88.7,173L78.9,173L78.9,150.1C77.4,151.3,75.8,152.3,74.4,153C72.9,153.8,71,154.5,68.8,155.1L68.8,147.3C72.1,146.2,74.6,145,76.5,143.5C78.3,142,79.7,140.2,80.7,138.1L88.7,138.1zM122.1,138.1L122.1,173L112.4,173L112.4,150.1C110.8,151.3,109.2,152.3,107.8,153C106.3,153.8,104.4,154.5,102.2,155.1L102.2,147.3C105.5,146.2,108,145,109.9,143.5C111.7,142,113.1,140.2,114.1,138.1L122.1,138.1zM155.5,138.1L155.5,173L145.8,173L145.8,150.1C144.2,151.3,142.7,152.3,141.2,153C139.7,153.8,137.8,154.5,135.6,155.1L135.6,147.3C138.9,146.2,141.5,145,143.3,143.5C145.1,142,146.5,140.2,147.5,138.1L155.5,138.1zM189,138.1L189,173L179.2,173L179.2,150.1C177.6,151.3,176.1,152.3,174.6,153C173.1,153.8,171.3,154.5,169,155.1L169,147.3C172.3,146.2,174.9,145,176.7,143.5C178.5,142,179.9,140.2,181,138.1L189,138.1zM222.4,138.1L222.4,173L212.6,173L212.6,150.1C211,151.3,209.5,152.3,208,153C206.5,153.8,204.7,154.5,202.4,155.1L202.4,147.3C205.7,146.2,208.3,145,210.1,143.5C211.9,142,213.3,140.2,214.4,138.1L222.4,138.1z" stroke-width="0.333333"/><path transform="translate(242.57,39.34)" id="shape4" stroke="#ffffff" fill="#ffffff" d="M0,86.7C0,38.8,39.3,0,87.7,0C136.2,0,175.4,38.8,175.4,86.7C175.4,134.6,136.2,173.4,87.7,173.4C39.3,173.4,0,134.6,0,86.7z"/><path transform="translate(259.94,53.23)" id="shape5" stroke="#717070" fill="#717070" d="M8.5,125.4C-20.2,91.6,-15.8,41.1,18.5,12.6C52.8,-15.8,103.9,-11.4,132.6,22.5C158.8,53.4,157.5,98,131.1,127.2L157,157.7C157.8,158.6,157.7,160.1,156.7,160.9L142.2,172.9C141.2,173.7,139.8,173.6,139,172.6L113.1,142.1C79.5,162.7,34.7,156.3,8.5,125.4zM113.5,124.5C141.7,101.1,145.4,59.5,121.7,31.6C98,3.7,55.9,0,27.7,23.5C-0.5,46.9,-4.2,88.5,19.5,116.4C43.2,144.3,85.2,147.9,113.5,124.5z"/></g></g></svg>